<?xml version="1.0" standalone="no"?>
<!DOCTYPE svg PUBLIC "-//W3C//DTD SVG 20010904//EN"
 "http://www.w3.org/TR/2001/REC-SVG-20010904/DTD/svg10.dtd">
<svg version="1.0" xmlns="http://www.w3.org/2000/svg"
 width="225.000000pt" height="225.000000pt" viewBox="0 0 225.000000 225.000000"
 preserveAspectRatio="xMidYMid meet">

<g transform="translate(0.000000,225.000000) scale(0.100000,-0.100000)"
fill="#000000" stroke="none">
<path d="M1095 1967 c-22 -12 -51 -40 -65 -61 l-25 -38 -10 42 -10 43 -49 -57
c-26 -31 -52 -53 -57 -50 -6 4 -5 12 4 22 8 10 20 28 27 41 l12 23 -39 -22
c-64 -36 -129 -96 -172 -161 -23 -34 -41 -66 -41 -73 0 -6 14 14 32 44 34 61
116 145 169 174 41 23 32 13 -43 -43 -54 -40 -128 -135 -143 -181 -4 -11 -10
-18 -15 -15 -10 6 -25 -34 -16 -42 3 -4 6 2 6 12 0 10 2 16 5 13 4 -3 3 -18
-1 -33 -4 -15 -9 -22 -13 -17 -3 6 -5 -53 -5 -129 2 -106 6 -145 17 -162 10
-16 16 -56 19 -119 2 -57 7 -96 13 -95 6 1 10 -8 9 -20 0 -12 3 -20 7 -18 10
7 32 -22 25 -33 -7 -12 41 -57 62 -57 9 0 16 -5 15 -12 -2 -8 4 -10 14 -6 12
5 14 3 8 -7 -5 -8 -4 -11 3 -7 12 8 44 -2 38 -12 -2 -3 9 -6 26 -7 16 -1 24 2
18 6 -6 4 -11 11 -11 16 0 5 -7 9 -17 9 -9 0 -16 5 -15 11 1 7 -8 20 -20 30
l-22 19 20 -25 c16 -21 14 -20 -13 5 -18 16 -30 35 -27 43 3 8 0 10 -7 6 -8
-5 -9 -2 -5 9 4 10 2 16 -5 14 -6 -1 -15 14 -20 33 -18 65 8 210 35 193 6 -3
7 -1 3 6 -18 28 106 140 140 127 8 -3 12 -2 9 3 -7 12 2 15 154 46 71 15 147
38 175 53 28 15 56 27 63 27 6 0 15 4 20 9 5 5 2 6 -6 1 -8 -5 -3 7 11 26 26
34 68 112 68 125 0 4 -14 -11 -32 -34 -18 -23 -56 -54 -88 -71 -65 -35 -207
-65 -228 -48 -7 5 -15 7 -19 3 -3 -3 0 -6 8 -7 8 0 -26 -9 -76 -19 -133 -28
-268 -103 -257 -143 1 -4 -3 -6 -10 -5 -6 2 -24 -19 -39 -46 -26 -47 -27 -48
-39 -27 -6 13 -9 25 -6 29 3 3 6 1 6 -4 0 -5 12 9 26 31 37 55 75 95 85 89 5
-3 7 1 4 8 -2 7 0 29 4 48 8 32 9 33 10 8 2 -59 46 -21 66 56 17 65 40 108 94
175 40 49 39 51 61 -61 8 -39 21 -67 41 -89 28 -30 32 -31 86 -25 31 4 77 12
101 18 42 10 46 15 72 72 15 34 31 72 35 86 6 21 3 20 -16 -9 -13 -19 -35 -41
-49 -50 -16 -10 -12 -3 12 20 20 19 40 48 44 63 4 19 9 24 14 15 5 -6 8 11 8
40 1 28 -3 49 -8 46 -11 -7 -22 24 -13 37 4 7 1 8 -7 3 -10 -6 -12 -4 -7 7 3
9 -2 23 -11 31 -60 52 -159 62 -227 24z m30 -6 c-40 -18 -95 -72 -95 -93 0 -6
-3 -8 -6 -5 -20 20 85 117 126 117 8 0 -3 -9 -25 -19z m122 13 c-3 -3 -12 -4
-19 -1 -8 3 -5 6 6 6 11 1 17 -2 13 -5z m74 -41 c13 -16 12 -17 -3 -4 -10 7
-18 15 -18 17 0 8 8 3 21 -13z m-304 -105 c-3 -8 -6 -5 -6 6 -1 11 2 17 5 13
3 -3 4 -12 1 -19z m-147 -19 c-6 -11 -16 -17 -21 -13 -6 3 -10 0 -8 -7 3 -28
-1 -40 -13 -33 -8 5 -9 2 -5 -9 8 -21 -2 -49 -14 -41 -6 3 -7 -6 -4 -23 5 -23
4 -25 -5 -10 -13 21 -4 60 12 51 8 -5 9 -1 5 10 -6 16 12 64 35 93 16 19 30 5
18 -18z m147 -21 c-3 -8 -6 -5 -6 6 -1 11 2 17 5 13 3 -3 4 -12 1 -19z m102
-125 c2 -2 0 -3 -5 -3 -5 0 -25 14 -44 31 l-35 30 40 -27 c22 -16 42 -29 44
-31z m-320 -48 c-1 -29 -1 -29 -9 -5 -4 14 -8 34 -9 45 -1 16 1 17 9 5 5 -8 9
-28 9 -45z m-22 -92 c-2 -16 -4 -3 -4 27 0 30 2 43 4 28 2 -16 2 -40 0 -55z
m-7 -538 c13 -14 21 -25 18 -25 -2 0 -15 11 -28 25 -13 14 -21 25 -18 25 2 0
15 -11 28 -25z"/>
<path d="M855 1819 c-4 -6 -5 -12 -2 -15 2 -3 7 2 10 11 7 17 1 20 -8 4z"/>
<path d="M942 1941 c-8 -4 -13 -12 -11 -16 1 -4 -10 -23 -25 -41 -42 -53 -23
-40 24 16 39 47 43 61 12 41z"/>
<path d="M1467 1811 c-4 -17 -3 -21 5 -13 5 5 8 16 6 23 -3 8 -7 3 -11 -10z"/>
<path d="M1518 1723 c-50 -76 -51 -80 -32 -128 11 -31 15 -58 10 -87 -8 -54
-54 -146 -78 -159 -10 -6 -16 -14 -13 -19 4 -6 -1 -7 -11 -3 -11 4 -15 2 -11
-4 4 -6 1 -11 -6 -10 -30 1 -48 -4 -43 -12 3 -4 -7 -6 -22 -4 -16 3 -22 1 -15
-4 6 -4 -36 -8 -95 -8 -59 0 -109 3 -112 7 -3 3 -22 9 -44 13 l-38 8 17 -27
c39 -59 165 -96 263 -76 134 28 268 123 319 228 40 81 40 183 0 265 -28 57
-55 81 -37 31 15 -39 11 -42 -9 -6 l-17 34 -26 -39z m79 -145 c-3 -7 -5 -2 -5
12 0 14 2 19 5 13 2 -7 2 -19 0 -25z m-38 -108 c-18 -34 -46 -71 -63 -82 -29
-20 -29 -19 6 16 20 21 47 62 60 91 12 29 24 49 26 45 2 -5 -11 -37 -29 -70z
m-342 -197 c-20 -2 -52 -2 -70 0 -17 2 0 4 38 4 39 0 53 -2 32 -4z"/>
<path d="M1379 1653 c-13 -16 -12 -17 4 -4 9 7 17 15 17 17 0 8 -8 3 -21 -13z"/>
<path d="M1389 1563 c-13 -16 -12 -17 4 -4 9 7 17 15 17 17 0 8 -8 3 -21 -13z"/>
<path d="M1382 1529 c-19 -17 -40 -28 -48 -25 -9 3 -12 1 -9 -4 10 -16 -57
-39 -201 -70 -135 -29 -182 -47 -221 -83 -29 -26 -29 -36 2 -66 14 -13 23 -17
20 -9 -15 38 80 83 225 108 111 19 181 61 244 143 34 45 32 46 -12 6z"/>
<path d="M633 1480 c0 -41 2 -58 4 -37 2 20 2 54 0 75 -2 20 -4 3 -4 -38z"/>
<path d="M860 1311 c0 -8 -6 -11 -16 -7 -8 3 -13 2 -10 -2 2 -4 -4 -27 -15
-51 -10 -24 -19 -53 -19 -65 0 -17 -2 -18 -11 -6 -8 12 -9 10 -5 -7 14 -55 19
-68 30 -75 21 -14 30 -8 10 8 -18 14 -18 15 4 4 12 -6 20 -15 17 -19 -3 -5 2
-12 11 -15 24 -9 31 -7 14 5 -13 9 -13 10 0 6 8 -2 14 -10 12 -17 -2 -8 4 -11
18 -7 12 3 18 1 14 -5 -4 -6 2 -8 16 -3 16 5 20 4 15 -4 -5 -8 2 -10 22 -6 22
5 25 4 13 -4 -11 -9 -4 -10 30 -6 34 4 40 3 25 -5 -15 -7 -6 -8 34 -4 42 5 52
3 46 -6 -6 -10 -1 -11 21 -5 16 4 52 7 79 7 39 -1 46 1 30 9 -15 7 -9 8 23 4
29 -4 41 -2 37 5 -4 7 2 9 21 4 20 -5 25 -4 19 6 -5 9 -2 10 15 5 17 -5 21 -4
15 6 -6 9 -3 11 8 6 19 -7 49 1 42 12 -2 4 21 19 51 34 66 33 72 27 7 -7 -27
-14 -43 -25 -38 -25 13 -1 112 56 119 68 3 5 -2 15 -11 22 -14 12 -16 12 -8 0
6 -11 4 -13 -9 -8 -11 5 -15 3 -10 -5 5 -8 2 -9 -9 -5 -9 3 -27 2 -39 -3 -14
-5 -17 -9 -8 -10 9 -1 5 -5 -8 -11 -13 -5 -36 -6 -50 -3 -21 4 -24 3 -12 -5
11 -8 -2 -10 -50 -6 -51 3 -56 2 -25 -4 32 -7 22 -8 -50 -8 -68 0 -82 2 -55 8
27 6 22 7 -25 4 -39 -3 -55 -1 -45 5 12 8 11 10 -5 10 -11 0 -47 12 -80 26
-33 14 -68 27 -78 28 -9 1 -23 9 -30 16 -10 12 -9 12 3 5 9 -6 1 3 -18 19 -18
16 -44 45 -58 65 -13 20 -24 30 -24 22z m56 -73 l29 -33 -32 29 c-31 28 -38
36 -30 36 2 0 16 -15 33 -32z m140 -96 c-5 -4 -66 26 -66 33 0 3 16 -3 35 -12
19 -9 33 -18 31 -21z"/>
<path d="M1630 1233 c-57 -44 -58 -46 -35 -37 20 7 20 7 0 -17 -10 -13 5 -1
35 28 30 29 52 54 50 57 -3 2 -25 -12 -50 -31z"/>
<path d="M824 1065 c3 -9 6 -21 6 -26 0 -4 7 -6 15 -2 9 3 25 -3 35 -12 18
-16 18 -19 3 -30 -11 -8 -13 -14 -5 -19 7 -4 12 -2 12 5 0 6 8 9 20 6 11 -3
20 -4 20 -3 0 7 -70 73 -90 84 -20 13 -22 12 -16 -3z"/>
<path d="M856 1017 c3 -10 9 -15 12 -12 3 3 0 11 -7 18 -10 9 -11 8 -5 -6z"/>
<path d="M465 881 c-44 -19 -55 -45 -67 -155 -12 -103 -12 -107 9 -128 16 -16
34 -21 68 -21 56 0 93 30 102 86 l6 37 -42 0 c-38 0 -41 -2 -41 -27 0 -16 -4
-34 -9 -42 -17 -26 -23 10 -17 92 9 100 13 117 32 117 11 0 13 -9 8 -40 l-7
-40 42 0 41 0 0 43 c0 30 -6 49 -19 61 -22 20 -78 29 -106 17z"/>
<path d="M943 883 c-45 -9 -68 -77 -43 -124 6 -11 29 -31 51 -45 35 -22 40
-29 37 -57 -4 -42 -22 -41 -26 1 -3 29 -6 32 -38 32 -33 0 -34 -1 -34 -38 0
-52 26 -75 86 -75 63 0 89 27 88 90 -1 48 -4 52 -83 116 -23 19 -25 47 -3 55
7 2 12 -6 12 -21 0 -24 6 -25 63 -18 9 1 9 42 -1 58 -8 13 -57 34 -75 32 -7
-1 -22 -4 -34 -6z"/>
<path d="M1140 878 c-42 -22 -51 -54 -48 -160 4 -120 18 -141 94 -141 39 0 51
4 71 27 14 17 23 40 23 62 0 33 -1 34 -39 34 -39 0 -40 -1 -43 -37 -2 -21 -7
-38 -13 -38 -6 0 -11 44 -13 108 -2 91 0 107 13 107 11 0 15 -11 15 -40 l0
-40 41 0 42 0 -6 41 c-3 23 -14 50 -24 61 -25 24 -81 32 -113 16z"/>
<path d="M614 813 c3 -38 8 -105 12 -150 l6 -83 58 0 58 0 11 48 c5 26 17 85
26 132 9 47 19 93 21 103 5 14 -1 17 -34 17 l-40 0 -12 -72 c-21 -125 -28
-132 -29 -25 l-1 97 -41 0 -41 0 6 -67z"/>
<path d="M796 729 c-16 -85 -34 -157 -40 -161 -18 -12 -121 -9 -134 4 -7 7
-12 37 -13 68 0 57 -2 56 -29 -18 -7 -18 -25 -39 -39 -47 -20 -10 -22 -15 -11
-19 8 -3 128 -7 265 -9 138 -2 255 -6 260 -9 6 -3 21 -1 35 4 14 6 50 10 80
10 30 0 42 2 25 4 -59 8 -75 15 -96 37 -15 15 -23 18 -26 9 -14 -37 -114 -54
-165 -28 -23 12 -29 12 -39 0 -7 -9 -25 -14 -43 -12 -30 3 -31 5 -31 48 0 45
0 45 38 48 29 3 37 7 37 23 0 15 7 19 32 19 l32 0 -27 28 c-15 16 -27 41 -29
60 -1 18 -14 47 -28 64 l-26 31 -28 -154z"/>
<path d="M1310 730 l0 -150 70 0 70 0 0 30 c0 27 -3 30 -30 30 -28 0 -30 3
-30 35 0 31 3 35 26 35 22 0 25 4 22 28 -2 19 -9 28 -24 30 -14 2 -24 12 -27
27 -5 30 -1 35 30 35 18 0 22 5 19 23 -3 20 -9 22 -64 25 l-62 3 0 -151z"/>
<path d="M1470 822 c0 -32 3 -100 6 -150 l7 -92 33 0 34 0 -7 90 c-3 50 -4 90
-1 90 3 0 13 -40 23 -90 16 -82 20 -90 40 -90 21 0 23 6 32 98 l9 97 8 -97 8
-98 35 0 36 0 -6 48 c-4 26 -9 93 -13 150 l-7 102 -53 0 -54 0 0 -62 c0 -71
-8 -70 -25 4 l-11 53 -47 3 -47 3 0 -59z"/>
<path d="M1757 798 c-4 -46 -7 -113 -7 -150 l0 -68 40 0 c38 0 40 2 40 30 0
19 5 30 14 30 8 0 17 -13 21 -30 6 -27 10 -30 46 -30 36 0 40 2 34 20 -10 31
-75 270 -75 275 0 3 -24 5 -54 5 l-53 0 -6 -82z m88 -65 c6 -36 4 -43 -9 -43
-13 0 -16 12 -15 63 0 66 10 58 24 -20z"/>
<path d="M1728 863 c-2 -5 -1 -35 3 -68 l6 -60 1 68 c2 61 -1 80 -10 60z"/>
<path d="M1400 795 c0 -9 9 -15 25 -15 16 0 25 6 25 15 0 9 -9 15 -25 15 -16
0 -25 -6 -25 -15z"/>
<path d="M1040 780 c-19 -4 -30 -8 -24 -9 6 0 23 -13 38 -27 l26 -27 0 37 c0
20 -1 35 -2 35 -2 -1 -19 -5 -38 -9z"/>
<path d="M490 731 c0 -5 27 -11 60 -13 37 -2 59 1 57 7 -5 13 -117 19 -117 6z"/>
<path d="M1180 730 c0 -5 25 -10 55 -10 30 0 55 5 55 10 0 6 -25 10 -55 10
-30 0 -55 -4 -55 -10z"/>
<path d="M1410 680 c0 -15 7 -20 25 -20 17 0 25 5 25 18 0 12 -8 18 -25 20
-19 1 -25 -3 -25 -18z"/>
<path d="M800 610 c0 -27 3 -30 30 -30 27 0 30 3 30 30 0 27 -3 30 -30 30 -27
0 -30 -3 -30 -30z"/>
<path d="M1291 622 c0 -14 -12 -29 -31 -40 -16 -9 -28 -21 -27 -27 3 -8 140
-10 501 -6 108 1 72 11 -48 13 -59 1 -109 5 -112 10 -3 5 -11 5 -17 0 -7 -6
-66 -9 -132 -8 l-120 1 -6 40 c-3 22 -7 30 -8 17z"/>
<path d="M1830 570 c-12 -8 -9 -10 13 -10 16 0 26 4 22 10 -8 12 -16 12 -35 0z"/>
<path d="M968 533 c6 -2 18 -2 25 0 6 3 1 5 -13 5 -14 0 -19 -2 -12 -5z"/>
<path d="M1163 533 c9 -2 23 -2 30 0 6 3 -1 5 -18 5 -16 0 -22 -2 -12 -5z"/>
<path d="M393 484 c-4 -10 0 -22 10 -29 23 -17 21 -28 -3 -20 -11 4 -20 2 -20
-4 0 -6 11 -11 25 -11 30 0 34 26 8 47 -17 13 -16 13 6 7 17 -4 22 -3 19 7 -7
21 -37 23 -45 3z"/>
<path d="M496 489 c-3 -8 -6 -23 -8 -33 -5 -35 -28 -30 -29 6 -1 30 -2 31 -8
8 -10 -34 -2 -52 22 -48 14 2 24 14 29 37 9 32 3 58 -6 30z"/>
<path d="M526 488 c-13 -41 -15 -68 -6 -68 5 0 10 8 10 18 1 16 1 16 14 -1 12
-16 14 -15 20 15 4 21 2 34 -6 40 -18 11 -28 10 -32 -4z m34 -18 c0 -5 -4 -10
-9 -10 -6 0 -13 5 -16 10 -3 6 1 10 9 10 9 0 16 -4 16 -10z"/>
<path d="M619 482 c-11 -18 -14 -19 -24 -5 -9 12 -10 7 -7 -21 2 -20 7 -36 11
-36 8 1 42 73 36 78 -2 2 -9 -5 -16 -16z"/>
<path d="M835 487 c-2 -6 -6 -25 -9 -42 -6 -27 -5 -28 7 -12 8 9 22 17 31 17
9 0 19 7 22 15 11 27 26 16 22 -15 -3 -16 -1 -30 4 -30 4 0 8 9 8 19 0 11 7
26 15 35 8 8 11 17 7 20 -10 6 -39 2 -48 -6 -3 -4 -17 -3 -30 3 -18 6 -26 5
-29 -4z m35 -17 c0 -5 -7 -10 -16 -10 -8 0 -12 5 -9 10 3 6 10 10 16 10 5 0 9
-4 9 -10z"/>
<path d="M1116 492 c-3 -5 -18 -7 -34 -4 -24 3 -30 0 -35 -20 -11 -40 -8 -48
21 -47 16 1 20 3 10 6 -10 2 -18 8 -18 13 0 5 8 11 18 13 16 4 16 5 0 6 -10 0
-18 6 -18 11 0 16 33 11 58 -9 27 -24 28 -35 2 -28 -11 3 -20 1 -20 -4 0 -5
11 -9 25 -9 30 0 34 26 8 47 -17 13 -16 14 5 8 25 -7 31 10 6 19 -20 8 -22 8
-28 -2z"/>
<path d="M1170 490 c0 -5 5 -10 11 -10 7 0 8 -12 4 -32 -5 -25 -4 -29 4 -18 6
8 11 23 11 33 0 9 7 17 15 17 10 0 15 -10 15 -30 0 -26 3 -30 28 -29 23 2 24
2 5 6 -13 2 -23 9 -23 14 0 5 10 10 23 10 16 1 18 2 5 6 -23 6 -23 23 -1 23
13 0 14 3 5 12 -8 8 -15 8 -27 -2 -8 -7 -15 -8 -15 -3 0 5 -13 10 -30 11 -16
1 -30 -2 -30 -8z"/>
<path d="M1305 490 c-11 -5 -14 -9 -6 -9 10 -1 12 -9 7 -31 -3 -19 -2 -29 4
-25 6 3 10 17 10 31 0 15 6 24 15 24 8 0 15 5 15 10 0 12 -17 12 -45 0z"/>
<path d="M1358 487 c-5 -10 -8 -31 -8 -45 1 -24 2 -25 11 -9 6 10 9 30 7 45
-2 23 -4 24 -10 9z"/>
<path d="M1417 483 c-12 -12 -17 -13 -17 -5 0 7 -4 10 -10 7 -5 -3 -10 -21
-10 -38 1 -27 2 -29 11 -14 10 18 11 18 26 0 14 -17 14 -17 4 2 -7 15 -6 24 6
38 21 23 12 32 -10 10z"/>
<path d="M1780 481 c-16 -31 -12 -61 8 -61 41 0 57 51 22 70 -15 8 -21 6 -30
-9z m34 -10 c3 -4 -1 -17 -9 -27 -14 -18 -14 -18 -15 9 0 26 13 36 24 18z"/>
<path d="M1880 481 c-5 -11 -10 -30 -10 -43 1 -21 2 -21 11 -5 10 18 11 18 25
0 11 -14 14 -14 13 -3 -1 8 1 23 6 34 5 12 3 21 -6 27 -21 13 -27 11 -39 -10z
m30 -11 c0 -5 -4 -10 -10 -10 -5 0 -10 5 -10 10 0 6 5 10 10 10 6 0 10 -4 10
-10z"/>
<path d="M653 478 c-32 -50 -31 -54 4 -54 24 0 32 4 28 14 -3 7 -5 22 -5 33 0
22 -15 25 -27 7z"/>
<path d="M731 468 c-5 -13 -6 -29 -4 -35 6 -15 39 -17 47 -4 4 5 -3 7 -15 4
-17 -5 -20 -2 -17 18 2 18 9 23 26 22 13 -2 21 1 17 7 -11 18 -45 11 -54 -12z"/>
<path d="M798 455 c-2 -19 0 -35 4 -35 4 0 8 9 8 19 0 11 3 26 6 35 3 9 2 16
-4 16 -5 0 -12 -16 -14 -35z"/>
<path d="M957 455 c-9 -19 -12 -35 -7 -35 5 0 12 11 16 25 3 14 10 25 16 25 5
0 7 -9 3 -19 -3 -11 -1 -22 5 -26 8 -5 10 4 8 26 -4 45 -21 46 -41 4z"/>
<path d="M1459 463 c-22 -45 -22 -46 -10 -38 7 4 16 17 21 29 l9 21 0 -22 c1
-23 21 -44 21 -21 0 23 -12 58 -20 58 -4 0 -13 -12 -21 -27z"/>
<path d="M1546 474 c-3 -9 -6 -25 -6 -37 0 -17 2 -19 9 -8 5 8 7 21 3 29 -3
10 -1 13 6 8 7 -4 12 -1 12 8 0 21 -16 21 -24 0z"/>
<path d="M1596 474 c-8 -22 -8 -26 3 -20 5 4 7 -4 4 -16 -9 -34 6 -16 17 21 6
24 5 31 -5 31 -7 0 -16 -7 -19 -16z"/>
<path d="M1640 458 c-21 -35 -21 -41 3 -32 9 3 13 12 11 19 -3 7 0 16 6 20 6
4 11 1 9 -6 -3 -24 1 -39 9 -39 4 0 6 16 4 35 -5 43 -17 44 -42 3z"/>
<path d="M1707 483 c-4 -3 -7 -20 -7 -37 l1 -31 13 24 c13 23 13 23 19 2 6
-26 27 -28 27 -2 0 11 3 26 6 35 3 9 1 16 -5 16 -6 0 -11 -10 -12 -22 l0 -23
-11 23 c-11 23 -20 27 -31 15z"/>
<path d="M1846 468 c-8 -32 -7 -48 2 -48 4 0 9 16 10 35 3 40 -3 46 -12 13z"/>
<path d="M1938 455 c-2 -19 0 -35 4 -35 4 0 8 9 8 19 0 11 3 26 6 35 3 9 2 16
-4 16 -5 0 -12 -16 -14 -35z"/>
<path d="M1570 434 c0 -8 5 -12 10 -9 6 3 10 10 10 16 0 5 -4 9 -10 9 -5 0
-10 -7 -10 -16z"/>
<path d="M393 403 c9 -2 25 -2 35 0 9 3 1 5 -18 5 -19 0 -27 -2 -17 -5z"/>
<path d="M488 403 c7 -3 16 -2 19 1 4 3 -2 6 -13 5 -11 0 -14 -3 -6 -6z"/>
<path d="M623 403 c15 -2 37 -2 50 0 12 2 0 4 -28 4 -27 0 -38 -2 -22 -4z"/>
<path d="M700 405 c0 -7 39 -12 49 -5 7 4 -1 7 -18 8 -17 0 -31 -1 -31 -3z"/>
<path d="M978 403 c18 -2 45 -2 60 0 15 2 0 4 -33 4 -33 0 -45 -2 -27 -4z"/>
<path d="M1108 403 c7 -3 16 -2 19 1 4 3 -2 6 -13 5 -11 0 -14 -3 -6 -6z"/>
<path d="M1148 403 c7 -3 16 -2 19 1 4 3 -2 6 -13 5 -11 0 -14 -3 -6 -6z"/>
<path d="M1208 403 c6 -2 18 -2 25 0 6 3 1 5 -13 5 -14 0 -19 -2 -12 -5z"/>
<path d="M1333 403 c9 -2 23 -2 30 0 6 3 -1 5 -18 5 -16 0 -22 -2 -12 -5z"/>
<path d="M1508 403 c12 -2 30 -2 40 0 9 3 -1 5 -23 4 -22 0 -30 -2 -17 -4z"/>
<path d="M1588 403 c7 -3 16 -2 19 1 4 3 -2 6 -13 5 -11 0 -14 -3 -6 -6z"/>
<path d="M1628 403 c6 -2 18 -2 25 0 6 3 1 5 -13 5 -14 0 -19 -2 -12 -5z"/>
<path d="M1688 403 c7 -3 16 -2 19 1 4 3 -2 6 -13 5 -11 0 -14 -3 -6 -6z"/>
<path d="M1728 403 c7 -3 16 -2 19 1 4 3 -2 6 -13 5 -11 0 -14 -3 -6 -6z"/>
<path d="M1808 403 c12 -2 30 -2 40 0 9 3 -1 5 -23 4 -22 0 -30 -2 -17 -4z"/>
<path d="M1898 403 c12 -2 32 -2 45 0 12 2 2 4 -23 4 -25 0 -35 -2 -22 -4z"/>
<path d="M370 341 c0 -6 5 -13 11 -17 8 -4 7 -9 -2 -15 -11 -7 -10 -9 4 -9 9
0 17 7 17 15 0 8 -6 15 -12 15 -9 0 -8 4 2 10 13 8 12 10 -2 10 -10 0 -18 -4
-18 -9z"/>
<path d="M411 328 c-1 -19 4 -28 14 -28 9 0 15 9 14 23 0 21 -1 21 -8 2 -8
-19 -9 -18 -13 5 -5 25 -5 25 -7 -2z"/>
<path d="M450 324 c0 -21 2 -23 14 -12 10 9 11 15 2 20 -8 6 -7 8 2 8 7 0 17
-10 22 -22 5 -13 9 -17 9 -10 1 6 8 12 17 12 33 0 6 25 -29 27 -33 2 -37 0
-37 -23z"/>
<path d="M541 328 c-1 -22 4 -28 19 -28 15 0 20 6 19 28 -2 23 -2 24 -6 5 -2
-13 -8 -23 -13 -23 -5 0 -11 10 -13 23 -4 19 -4 18 -6 -5z"/>
<path d="M590 325 c0 -17 5 -25 18 -25 14 0 15 2 2 10 -13 9 -13 10 0 10 12 0
13 2 1 9 -11 7 -11 9 0 14 10 4 9 6 -3 6 -13 1 -18 -7 -18 -24z"/>
<path d="M631 323 c0 -16 3 -22 6 -14 5 11 7 11 14 0 6 -10 9 -6 9 14 0 17 -5
27 -15 27 -10 0 -15 -9 -14 -27z"/>
<path d="M732 325 c0 -16 2 -22 5 -12 2 9 2 23 0 30 -3 6 -5 -1 -5 -18z"/>
<path d="M750 325 c1 -26 2 -28 11 -12 8 14 8 22 0 30 -8 8 -11 3 -11 -18z"/>
<path d="M777 330 c-3 -11 -1 -23 4 -26 5 -3 9 6 9 20 0 31 -6 34 -13 6z"/>
<path d="M800 341 c0 -6 5 -13 11 -17 8 -4 7 -9 -2 -15 -11 -7 -10 -9 4 -9 19
0 23 15 6 26 -8 4 -7 9 2 15 11 7 10 9 -3 9 -10 0 -18 -4 -18 -9z"/>
<path d="M848 325 c2 -14 6 -25 7 -25 1 0 5 11 7 25 3 16 1 25 -7 25 -8 0 -10
-9 -7 -25z"/>
<path d="M884 335 c-4 -11 -8 -22 -10 -25 -1 -3 6 -6 17 -6 21 0 24 13 9 36
-7 12 -10 11 -16 -5z"/>
<path d="M921 326 c-1 -27 1 -28 31 -22 40 8 42 10 29 33 -10 17 -11 17 -17
-4 -3 -13 -12 -23 -19 -23 -8 0 -16 10 -18 23 -3 18 -5 17 -6 -7z"/>
<path d="M1000 341 c0 -6 5 -13 11 -17 8 -4 7 -9 -2 -15 -11 -7 -10 -9 4 -9 9
0 17 7 17 15 0 8 -6 15 -12 15 -9 0 -8 4 2 10 13 8 12 10 -2 10 -10 0 -18 -4
-18 -9z"/>
<path d="M1042 325 c0 -16 2 -22 5 -12 2 9 2 23 0 30 -3 6 -5 -1 -5 -18z"/>
<path d="M1120 321 c0 -18 3 -22 9 -12 5 8 11 9 15 3 3 -5 16 -9 28 -8 16 1
23 7 23 21 0 16 -7 20 -37 21 -34 1 -38 -2 -38 -25z m37 -3 c-3 -8 -6 -5 -6 6
-1 11 2 17 5 13 3 -3 4 -12 1 -19z m33 7 c0 -8 -4 -15 -10 -15 -5 0 -10 7 -10
15 0 8 5 15 10 15 6 0 10 -7 10 -15z"/>
<path d="M1210 324 c0 -22 3 -26 10 -14 6 10 10 11 10 3 0 -22 18 -14 23 10
l4 22 2 -23 c0 -13 5 -21 11 -17 5 3 7 12 3 20 -3 8 0 15 6 15 6 0 11 -10 12
-22 0 -13 3 -17 6 -10 2 6 10 9 16 5 18 -12 57 -10 57 2 0 5 -5 17 -10 25 -8
13 -11 11 -16 -7 -7 -27 -22 -31 -20 -6 1 14 -9 18 -47 21 -38 2 -47 0 -41
-10 6 -10 4 -10 -9 1 -15 12 -17 10 -17 -15z"/>
<path d="M1380 322 c0 -25 1 -25 14 -6 19 25 63 26 70 1 6 -24 31 -17 31 9 0
16 -8 19 -57 20 -56 2 -58 1 -58 -24z m110 3 c0 -8 -4 -15 -10 -15 -5 0 -10 7
-10 15 0 8 5 15 10 15 6 0 10 -7 10 -15z"/>
<path d="M1511 323 c0 -16 3 -22 6 -14 5 11 7 11 14 0 6 -10 9 -6 9 14 0 17
-5 27 -15 27 -10 0 -15 -9 -14 -27z"/>
<path d="M1610 325 c0 -19 6 -22 55 -23 42 -1 55 2 55 13 0 8 -5 15 -11 15 -5
0 -8 -4 -5 -8 2 -4 -7 -8 -22 -9 -15 -1 -21 1 -13 4 11 5 11 7 0 15 -10 7 -8
9 7 5 12 -2 28 -1 35 4 9 5 -8 8 -43 8 -53 -2 -58 -4 -58 -24z m30 0 c0 -8 -4
-15 -10 -15 -5 0 -10 7 -10 15 0 8 5 15 10 15 6 0 10 -7 10 -15z"/>
<path d="M1732 325 c0 -16 2 -22 5 -12 2 9 2 23 0 30 -3 6 -5 -1 -5 -18z"/>
<path d="M1750 331 c0 -24 18 -37 32 -23 6 6 6 12 -3 17 -8 5 -10 4 -5 -3 4
-7 2 -12 -3 -12 -15 0 -14 27 2 33 7 3 5 6 -5 6 -11 1 -18 -6 -18 -18z"/>
<path d="M1800 339 c0 -9 7 -22 15 -29 13 -11 15 -8 14 16 0 16 -3 23 -6 15
-5 -11 -7 -11 -14 0 -7 11 -9 11 -9 -2z"/>
<path d="M1862 328 c2 -16 10 -23 26 -24 12 -1 22 3 22 8 0 5 6 6 13 1 19 -12
45 -14 52 -3 3 6 -1 7 -9 4 -11 -4 -16 0 -16 11 0 12 5 15 17 11 10 -4 14 -4
10 1 -5 4 -24 8 -43 10 -25 1 -34 -2 -34 -13 0 -9 -5 -12 -12 -8 -7 4 -8 3 -4
-4 4 -7 2 -12 -3 -12 -15 0 -14 27 2 33 7 3 4 6 -6 6 -14 1 -18 -5 -15 -21z
m73 1 c11 -16 1 -19 -13 -3 -7 8 -8 14 -3 14 5 0 13 -5 16 -11z"/>
<path d="M690 330 c0 -5 5 -10 10 -10 6 0 10 5 10 10 0 6 -4 10 -10 10 -5 0
-10 -4 -10 -10z"/>
<path d="M1080 330 c0 -5 5 -10 10 -10 6 0 10 5 10 10 0 6 -4 10 -10 10 -5 0
-10 -4 -10 -10z"/>
<path d="M1570 330 c0 -5 5 -10 10 -10 6 0 10 5 10 10 0 6 -4 10 -10 10 -5 0
-10 -4 -10 -10z"/>
</g>
</svg>
